<svg width="300" height="373" xmlns="http://www.w3.org/2000/svg" version="1.1">

 <g>
  <title>Layer 1</title>
  <path id="svg_1" fill="#000000" d="m28.27959,0.86578c1.31736,-0.00669 1.31736,-0.00669 2.66133,-0.01351c0.96564,0.00019 1.93128,0.00037 2.92618,0.00056c1.02527,-0.00368 2.05054,-0.00735 3.10688,-0.01114c3.4522,-0.01106 6.90438,-0.01489 10.3566,-0.01869c2.46856,-0.00626 4.93713,-0.01291 7.4057,-0.01991c7.42043,-0.01925 14.84086,-0.02983 22.26131,-0.03873c3.49549,-0.00439 6.99098,-0.00975 10.48647,-0.01499c11.62206,-0.01701 23.24412,-0.03151 34.86619,-0.03875c3.01591,-0.00191 6.03181,-0.00383 9.04771,-0.00578c0.74958,-0.00049 1.49915,-0.00097 2.27145,-0.00147c12.13791,-0.0083 24.27572,-0.03363 36.41359,-0.06612c12.46531,-0.03309 24.93057,-0.05108 37.39592,-0.05427c6.99734,-0.00217 13.99454,-0.01089 20.99184,-0.03646c6.58439,-0.02401 13.16856,-0.02752 19.753,-0.01724c2.41506,0.00049 4.83014,-0.00584 7.24517,-0.01956c3.301,-0.0177 6.60108,-0.01062 9.90208,0.00253c1.42839,-0.01645 1.42839,-0.01645 2.88563,-0.03324c9.38058,0.09005 16.21259,3.38009 23.02071,9.72802c8.67661,9.03076 8.87635,20.10672 8.85637,31.90862c0.00227,0.99152 0.00453,1.98305 0.00687,3.00463c0.00631,3.30782 0.00551,6.6156 0.00468,9.92342c0.003,2.37728 0.0064,4.75455 0.01018,7.13182c0.00791,5.77716 0.01105,11.5543 0.01161,17.33145c0.00048,4.69514 0.00254,9.39027 0.0057,14.0854c0.0088,13.31909 0.01342,26.63817 0.01267,39.95727c-0.00006,1.07552 -0.00006,1.07552 -0.00012,2.17277c-0.00004,0.7179 -0.00008,1.43579 -0.00012,2.17544c-0.00041,11.64881 0.00917,23.29758 0.02326,34.94638c0.01436,11.96824 0.02127,23.93647 0.02041,35.90472c-0.00034,6.71651 0.00241,13.433 0.01317,20.14951c0.00966,6.31109 0.00978,12.62211 0.00249,18.9332c-0.00105,2.31838 0.00133,4.63676 0.00736,6.95513c0.00768,3.15959 0.0031,6.31893 -0.00463,9.47852c0.00514,0.92158 0.01028,1.84317 0.01558,2.79269c-0.03038,5.60236 -0.36029,9.70736 -4.12293,14.12682c-0.74097,0.71889 -1.48194,1.43778 -2.24536,2.17846c-0.8192,0.80502 -1.6384,1.61004 -2.48242,2.43946c-0.85787,0.82822 -1.71574,1.65644 -2.59961,2.50976c-1.68343,1.63943 -3.36445,3.28133 -5.04297,4.92578c-0.74661,0.72228 -1.49322,1.44456 -2.26245,2.18872c-1.96004,2.01157 -3.78431,4.03934 -5.60791,6.16944c-4.27031,4.92056 -8.87679,9.4944 -13.49992,14.07948c-1.59279,1.57981 -3.18224,3.16291 -4.77096,4.74681c-3.94344,3.9302 -7.89235,7.85488 -11.84112,11.77972c-3.34856,3.32871 -6.69498,6.65954 -10.03868,9.99312c-1.55264,1.54625 -3.10831,3.0894 -4.66414,4.63243c-4.72082,4.69663 -9.33569,9.43235 -13.65044,14.50856c-2.29424,2.66148 -4.75826,5.11975 -7.24641,7.60094c-0.47631,0.48018 -0.95262,0.96035 -1.44336,1.45508c-4.43513,4.42266 -6.46572,4.73414 -12.71962,4.75459c-0.72631,0.00368 -1.45263,0.00736 -2.20095,0.01114c-2.44649,0.01106 -4.89293,0.01489 -7.33944,0.01869c-1.74922,0.00627 -3.49844,0.01291 -5.24765,0.01992c-4.76273,0.01742 -9.52544,0.02796 -14.28819,0.0362c-2.97606,0.00515 -5.95212,0.01123 -8.92818,0.01751c-9.31238,0.01906 -18.62476,0.03329 -27.93717,0.04161c-10.74692,0.00977 -21.49365,0.03607 -32.2405,0.07651c-8.3067,0.03018 -16.61334,0.04497 -24.92009,0.04828c-4.9607,0.00234 -9.92119,0.01128 -14.88184,0.03646c-4.6712,0.02332 -9.34203,0.02749 -14.01327,0.01724c-1.71038,-0.0005 -3.42078,0.0058 -5.13111,0.01955c-12.23475,0.09285 -20.94165,-1.0895 -30.17347,-9.69731c-9.15877,-9.53259 -8.87243,-21.10316 -8.85637,-33.48811c-0.00227,-1.28116 -0.00453,-2.56233 -0.00687,-3.88231c-0.0061,-3.54498 -0.00599,-7.08993 -0.0048,-10.63492c0.0002,-3.82764 -0.00532,-7.65528 -0.01006,-11.48293c-0.0083,-7.49482 -0.01106,-14.98964 -0.01161,-22.48447c-0.00048,-6.09338 -0.00254,-12.18676 -0.00571,-18.28013c-0.0088,-17.28398 -0.01342,-34.56794 -0.01266,-51.85192c0.00004,-0.93133 0.00008,-1.86266 0.00012,-2.82221c0.00004,-0.93247 0.00008,-1.86494 0.00012,-2.82567c0.00041,-15.11155 -0.00916,-30.22308 -0.02326,-45.33462c-0.01437,-15.52438 -0.02127,-31.04875 -0.02041,-46.57314c0.00033,-8.71257 -0.0024,-17.42511 -0.01318,-26.13768c-0.00911,-7.41793 -0.01127,-14.83582 -0.00449,-22.25375c0.00326,-3.78249 0.00334,-7.5649 -0.00535,-11.34738c-0.00934,-4.10593 -0.00308,-8.2117 0.00463,-12.31763c-0.00514,-1.18786 -0.01029,-2.37571 -0.01559,-3.59956c0.04835,-11.66334 1.28901,-22.40326 9.51283,-31.22654c5.22064,-4.92811 11.76976,-8.36712 19.02958,-8.38422zm-8.15458,19.25922c-5.54,7.49529 -5.55703,15.72272 -5.50595,24.74146c-0.00468,1.2754 -0.00936,2.55081 -0.01418,3.86487c-0.01247,3.51966 -0.00636,7.03908 0.00295,10.55874c0.00681,3.80375 -0.00369,7.60746 -0.01193,11.41119c-0.01333,7.44345 -0.01047,14.8868 -0.00177,22.33025c0.00679,6.05091 0.00769,12.10181 0.00443,18.15273c-0.00046,0.86209 -0.00092,1.72419 -0.00139,2.6124c-0.00096,1.75148 -0.00193,3.50296 -0.00292,5.25444c-0.00855,16.41308 0.00127,32.82611 0.0174,49.23919c0.0134,14.07482 0.01108,28.14956 -0.00275,42.22438c-0.01607,16.35545 -0.02237,32.71085 -0.01317,49.06631c0.00096,1.74493 0.0019,3.48987 0.00283,5.23481c0.00046,0.85848 0.00093,1.71696 0.0014,2.60145c0.00259,6.04174 -0.00177,12.08344 -0.00884,18.12517c-0.00842,7.3656 -0.00611,14.7311 0.00985,22.09669c0.00786,3.75608 0.01099,7.51199 0.00105,11.26807c-0.01063,4.0756 0.00208,8.15081 0.01704,12.2264c-0.00669,1.18162 -0.01339,2.36324 -0.02028,3.58067c0.056,7.86823 0.75245,14.70214 5.52623,21.16078c8.25816,6.10386 17.74712,5.53987 27.58423,5.46558c1.57766,-0.00085 3.15532,-0.00037 4.73298,0.00132c4.25977,0.00086 8.51928,-0.01671 12.77899,-0.03772c4.46026,-0.01882 8.92054,-0.02052 13.38083,-0.02407c8.43584,-0.00931 16.87157,-0.0339 25.30736,-0.06405c9.60823,-0.03359 19.21646,-0.05004 28.82474,-0.06509c19.75536,-0.03131 39.5106,-0.08404 59.26587,-0.15097c0.00364,-0.84001 0.00729,-1.68002 0.01105,-2.54549c0.03803,-7.95823 0.09506,-15.91607 0.17285,-23.87402c0.03933,-4.09024 0.07159,-8.18027 0.0871,-12.27067c0.01526,-3.95549 0.04987,-7.91039 0.09731,-11.86561c0.01471,-1.50084 0.02272,-3.00175 0.02357,-4.50266c0.0126,-11.12309 0.79749,-21.99105 8.8464,-30.44546c10.0206,-8.50973 21.18701,-8.80673 33.76172,-8.91015c1.44589,-0.01874 2.89177,-0.03831 4.33765,-0.05869c3.781,-0.05105 7.56204,-0.09082 11.3432,-0.12814c3.86819,-0.04021 7.73623,-0.09123 11.60431,-0.1413c7.57151,-0.09643 15.1431,-0.18094 22.71484,-0.25781c0.06848,-29.657 0.12155,-59.314 0.15319,-88.97106c0.00376,-3.50338 0.00764,-7.00676 0.0116,-10.51014c0.00079,-0.69744 0.00158,-1.39489 0.00239,-2.11346c0.01304,-11.2845 0.03669,-22.56896 0.06428,-33.85343c0.02808,-11.5838 0.0445,-23.16757 0.0508,-34.7514c0.00391,-6.50441 0.0131,-13.00872 0.03493,-19.51309c0.02038,-6.12388 0.02664,-12.24761 0.02213,-18.37151c0.00083,-2.24575 0.00678,-4.4915 0.0183,-6.73721c0.01497,-3.07114 0.01132,-6.14172 0.00314,-9.21286c0.00874,-0.88427 0.01748,-1.76854 0.02648,-2.6796c-0.05072,-7.07357 -1.24802,-13.392 -5.51224,-19.16124c-6.61404,-4.88863 -13.84647,-5.56646 -21.8562,-5.50595c-0.96506,-0.00468 -1.93012,-0.00936 -2.92442,-0.01418c-3.21259,-0.0119 -6.42475,-0.00251 -9.63735,0.00695c-2.31182,-0.00407 -4.62364,-0.00941 -6.93546,-0.01593c-6.26438,-0.01366 -12.52861,-0.00839 -18.793,0.00113c-6.56211,0.00761 -13.12422,0.00055 -19.68633,-0.00415c-11.72438,-0.00641 -23.44869,0.0035 -35.17306,0.01877c-10.61821,0.01341 -21.23632,0.01108 -31.85453,-0.00275c-12.34739,-0.01608 -24.69471,-0.02202 -37.04211,-0.01317c-6.52996,0.00468 -13.05986,0.00532 -19.58982,-0.0046c-6.13962,-0.00868 -12.27905,-0.00264 -18.41865,0.01468c-2.25058,0.00396 -4.50118,0.00284 -6.75175,-0.00379c-3.07725,-0.00822 -6.15391,0.00212 -9.23112,0.01704c-1.32886,-0.01004 -1.32886,-0.01004 -2.68457,-0.02028c-7.07385,0.06632 -13.40156,1.2614 -19.17163,5.52623zm189.9375,267.9375c-2.78483,3.96627 -3.18684,6.60136 -3.17603,11.32691c0.00008,1.10091 0.00015,2.20182 0.00023,3.3361c0.00516,1.18757 0.01032,2.37515 0.01564,3.59871c0.00142,1.21654 0.00283,2.43308 0.00429,3.68648c0.00561,3.89229 0.01816,7.78453 0.03087,11.6768c0.00501,2.63607 0.00958,5.27214 0.01367,7.9082c0.01104,6.46812 0.02778,12.93621 0.04883,19.4043c3.74708,-3.17114 7.46079,-6.33463 10.9375,-9.80469c0.66773,-0.66644 1.33547,-1.33289 2.02344,-2.01953c0.67289,-0.67676 1.34578,-1.35351 2.03906,-2.05078c0.67289,-0.66902 1.34578,-1.33805 2.03906,-2.02734c0.66774,-0.66903 1.33547,-1.33805 2.02344,-2.02735c0.5891,-0.59023 1.1782,-1.18046 1.78516,-1.78857c1.84367,-1.95452 3.59756,-3.94812 5.34985,-5.98364c3.99334,-4.5866 8.25812,-8.86261 12.57983,-13.13794c0.81135,-0.80757 1.6227,-1.61513 2.45864,-2.44716c2.56474,-2.55263 5.13272,-5.10195 7.70152,-7.6505c3.40777,-3.38129 6.81229,-6.7658 10.21484,-10.15234c0.78737,-0.77907 1.57474,-1.55815 2.38597,-2.36083c0.71818,-0.71487 1.43635,-1.42974 2.17629,-2.16627c0.63619,-0.63095 1.27237,-1.2619 1.92784,-1.91197c1.47059,-1.25994 1.47059,-1.25994 1.35756,-2.47109c-7.40141,-0.10173 -14.80264,-0.1716 -22.20459,-0.21973c-2.51602,-0.02006 -5.03199,-0.04733 -7.54785,-0.08203c-3.62431,-0.04872 -7.24799,-0.07126 -10.87256,-0.08886c-1.11802,-0.02065 -2.23604,-0.04129 -3.38794,-0.06256c-8.13543,-0.00232 -14.40069,1.21428 -19.92456,7.51568z"/>
  <path id="svg_2" fill="#000000" d="m72.83203,174.49207c1.02995,-0.00936 1.02995,-0.00936 2.0807,-0.01891c2.30027,-0.01595 4.59949,-0.00332 6.89977,0.00927c1.64926,-0.00542 3.29851,-0.01255 4.94775,-0.02124c4.47935,-0.01825 8.95833,-0.01116 13.43769,0.00151c4.68533,0.01012 9.37063,0.00074 14.05597,-0.00554c7.86854,-0.00728 15.73694,0.00232 23.60546,0.02136c9.10009,0.02177 18.19981,0.01472 27.29988,-0.00731c7.80988,-0.01814 15.61965,-0.02071 23.42954,-0.01024c4.66594,0.00624 9.33171,0.00706 13.99763,-0.00615c4.38647,-0.01154 8.77247,-0.00355 13.15888,0.01958c1.61087,0.00529 3.22178,0.00376 4.83264,-0.00505c2.1972,-0.01091 4.39292,0.00275 6.59003,0.02272c1.84501,0.00226 1.84501,0.00226 3.72729,0.00457c3.70098,0.60003 4.89289,1.52388 7.10474,4.50336c0.50347,3.45239 0.41556,5.26782 -1.3125,8.3125c-3.26531,3.26531 -6.87199,2.81712 -11.24069,2.82795c-0.66874,0.00297 -1.33748,0.00594 -2.02648,0.009c-2.24543,0.00869 -4.49081,0.01019 -6.73625,0.01169c-1.60807,0.00463 -3.21615,0.00965 -4.82422,0.01504c-4.37192,0.01313 -8.74382,0.01957 -13.11576,0.02401c-2.73063,0.00293 -5.46126,0.00704 -8.19189,0.01151c-8.54137,0.01367 -17.08274,0.02334 -25.62412,0.0272c-9.86399,0.00448 -19.72784,0.02204 -29.59179,0.051c-7.62216,0.0216 -15.24428,0.0317 -22.86647,0.03304c-4.55363,0.00105 -9.10714,0.00697 -13.66075,0.02482c-4.28293,0.01646 -8.56563,0.01865 -12.84859,0.00986c-1.57176,-0.00077 -3.14354,0.00359 -4.71527,0.01346c-2.14629,0.01269 -4.29177,0.00686 -6.43806,-0.00358c-1.20089,0.00146 -2.40178,0.00293 -3.63905,0.00444c-3.48978,-0.4097 -5.37402,-1.27735 -8.16811,-3.37194c-1.42042,-2.84083 -1.31452,-4.85477 -1,-8c3.15001,-4.27952 5.66975,-4.5016 10.83203,-4.50793z"/>
  <path id="svg_3" fill="#000000" d="m72.83203,220.49207c1.02995,-0.00936 1.02995,-0.00936 2.0807,-0.01891c2.30027,-0.01595 4.59949,-0.00332 6.89977,0.00927c1.64926,-0.00542 3.29851,-0.01255 4.94775,-0.02124c4.47935,-0.01825 8.95833,-0.01116 13.43769,0.00151c4.68533,0.01012 9.37063,0.00074 14.05597,-0.00554c7.86854,-0.00728 15.73694,0.00232 23.60546,0.02136c9.10009,0.02177 18.19981,0.01472 27.29988,-0.00731c7.80988,-0.01814 15.61965,-0.02071 23.42954,-0.01024c4.66594,0.00624 9.33171,0.00706 13.99763,-0.00615c4.38647,-0.01154 8.77247,-0.00355 13.15888,0.01958c1.61087,0.00529 3.22178,0.00376 4.83264,-0.00505c2.1972,-0.01091 4.39292,0.00275 6.59003,0.02272c1.84501,0.00226 1.84501,0.00226 3.72729,0.00457c3.70181,0.60017 4.88931,1.52632 7.10474,4.50336c0.5,3 0.5,3 0,6c-2.21543,2.97705 -3.40293,3.9032 -7.10474,4.50337c-1.23,0.00151 -2.46001,0.00302 -3.72729,0.00457c-0.68663,0.00624 -1.37327,0.01248 -2.08071,0.01891c-2.30027,0.01595 -4.59948,0.00332 -6.89976,-0.00927c-1.64926,0.00542 -3.29851,0.01254 -4.94776,0.02124c-4.47934,0.01825 -8.95832,0.01116 -13.43768,-0.00151c-4.68533,-0.01012 -9.37063,-0.00074 -14.05597,0.00554c-7.86854,0.00728 -15.73694,-0.00232 -23.60547,-0.02136c-9.10008,-0.02177 -18.1998,-0.01472 -27.29988,0.0073c-7.80987,0.01815 -15.61964,0.02072 -23.42953,0.01025c-4.66594,-0.00624 -9.33171,-0.00706 -13.99764,0.00615c-4.38646,0.01154 -8.77246,0.00355 -13.15887,-0.01958c-1.61087,-0.0053 -3.22179,-0.00376 -4.83264,0.00505c-2.19721,0.01091 -4.39292,-0.00275 -6.59003,-0.02272c-1.84501,-0.00226 -1.84501,-0.00226 -3.72729,-0.00457c-3.70182,-0.60017 -4.88931,-1.52632 -7.10474,-4.50337c-0.5,-3 -0.5,-3 0,-6c3.17464,-4.26601 5.65636,-4.50158 10.83203,-4.50793z"/>
  <path id="svg_4" fill="#000000" d="m138.0625,67.125c2.7726,2.51817 3.85322,3.90581 4.1875,7.75c-0.25,3.125 -0.25,3.125 -1.25,5.5c-2.55321,2.07449 -4.65539,2.23726 -7.89844,2.08984c-2.38093,-0.52663 -3.58216,-1.32702 -5.47656,-2.83984c-4.15624,-3.3061 -8.33576,-4.44735 -13.625,-4.625c-5.38024,0.90381 -10.32284,2.90259 -14,7c-3.08207,5.45517 -4.79258,10.58091 -3.66406,16.83203c1.67604,5.47179 4.27872,9.73584 9.28906,12.66797c5.01348,2.10945 10.03846,2.42438 15.375,1.5c2.30509,-1.04287 4.21434,-2.21016 6.24609,-3.71094c3.07839,-2.26251 4.94206,-3.33877 8.81641,-3.10156c4.37628,1.21046 4.37628,1.21046 5.9375,3.8125c0.49101,3.78779 0.43908,6.14276 -1.3125,9.5625c-8.62825,7.82562 -17.47206,9.95231 -28.79688,9.70313c-9.34357,-0.63792 -15.97987,-4.14998 -22.65625,-10.65625c-7.01255,-8.18949 -9.60549,-16.9156 -9.23437,-27.60938c0.84034,-8.15257 4.25847,-16.10329 10,-22c14.46971,-11.03527 33.08971,-14.32189 48.0625,-1.875z"/>
  <path id="svg_5" fill="#000000" d="m165,60c3.62033,3.84196 5.59996,8.04594 7.67188,12.82031c0.32728,0.74048 0.65456,1.48095 0.99176,2.24387c0.68589,1.5566 1.36811,3.11483 2.04681,4.67459c1.04107,2.38972 2.09604,4.77295 3.15283,7.15576c0.6662,1.51656 1.33159,3.03348 1.9961,4.55078c0.47333,1.06881 0.47333,1.06881 0.95623,2.15921c1.28265,2.9649 2.18439,5.12901 2.18439,8.39548c0.66,0 1.32,0 2,0c0.09749,-0.66371 0.19497,-1.32741 0.29541,-2.01123c0.89634,-3.80216 2.40338,-7.25086 3.97803,-10.80908c0.48661,-1.11072 0.48661,-1.11072 0.98306,-2.24387c0.68506,-1.55932 1.37273,-3.1175 2.06284,-4.67459c1.05354,-2.38143 2.09408,-4.76826 3.13379,-7.15576c0.66848,-1.51727 1.33773,-3.03421 2.00781,-4.55078c0.30948,-0.71254 0.61897,-1.42508 0.93783,-2.15921c2.81533,-6.30047 2.81533,-6.30047 5.60123,-8.39548c3.45937,-0.7114 6.83009,-0.58495 10,1c2.16158,4.32317 1.30019,9.07242 -0.12646,13.48071c-0.52288,1.15234 -1.04576,2.30469 -1.58448,3.49195c-0.2839,0.63738 -0.5678,1.27476 -0.8603,1.93145c-0.92085,2.05931 -1.86186,4.10864 -2.80376,6.15839c-0.64182,1.42342 -1.28219,2.8475 -1.92114,4.27222c-0.96636,2.15314 -1.93416,4.30554 -2.9081,6.45527c-2.00163,4.41876 -3.94787,8.85537 -5.84654,13.31939c-0.45005,1.05695 -0.90009,2.1139 -1.36377,3.20288c-0.82938,1.95477 -1.65477,3.91124 -2.47559,5.86962c-0.37012,0.86424 -0.74024,1.72848 -1.12158,2.6189c-0.31413,0.74419 -0.62826,1.48839 -0.9519,2.25513c-1.13351,2.12628 -2.13736,3.45844 -4.03638,4.94409c-5.57392,0.7078 -5.57392,0.7078 -8,0c-3.76708,-4.01679 -5.73892,-8.42832 -7.86328,-13.42187c-0.53261,-1.22738 -0.53261,-1.22738 -1.07597,-2.47956c-1.13164,-2.61314 -2.25241,-5.23078 -3.37325,-7.84857c-0.74086,-1.71253 -1.4824,-3.42477 -2.22461,-5.13672c-1.82146,-4.20855 -3.61809,-8.42723 -5.40826,-12.64917c-1.04638,-2.44483 -2.11726,-4.8777 -3.19281,-7.30981c-0.65621,-1.51478 -1.31199,-3.02975 -1.96729,-4.54492c-0.46313,-1.02357 -0.46313,-1.02357 -0.93562,-2.06782c-1.807,-4.23898 -2.33014,-7.1048 -0.95891,-11.54156c3.67607,-3.25594 6.3922,-3.56861 11,-2z"/>
  <path id="svg_6" fill="#000000" d="m75.98804,265.85474c0.81331,-0.00336 1.62663,-0.00672 2.46458,-0.01018c2.69159,-0.00951 5.38312,-0.01145 8.07473,-0.01253c1.86943,-0.00321 3.73886,-0.00657 5.60829,-0.01008c3.91988,-0.00599 7.83974,-0.00784 11.75963,-0.00725c5.02503,0.0001 10.04992,-0.01355 15.07492,-0.03077c3.86129,-0.01111 7.72253,-0.01315 11.58383,-0.01262c1.85277,-0.00118 3.70555,-0.00561 5.5583,-0.01333c2.59019,-0.00979 5.18006,-0.00693 7.77025,-0.0009c0.76637,-0.00562 1.53274,-0.01124 2.32233,-0.01703c3.72074,0.02205 6.70075,0.05172 9.7951,2.25995c1.55775,3.1155 1.56481,6.60444 1,10c-0.9983,1.59804 -0.9983,1.59804 -3,3c-2.85693,0.30141 -5.49678,0.42003 -8.35522,0.40406c-0.85233,0.00686 -1.70466,0.01372 -2.58281,0.02079c-2.82161,0.01833 -5.64266,0.01443 -8.46431,0.00875c-1.95911,0.00456 -3.91823,0.00986 -5.87734,0.01588c-4.10825,0.00894 -8.21631,0.0065 -12.32457,-0.00343c-5.26736,-0.01149 -10.53406,0.00871 -15.80133,0.03792c-4.04661,0.01833 -8.09306,0.01807 -12.13971,0.01236c-1.94209,-0.00016 -3.88419,0.00591 -5.82624,0.01829c-2.71505,0.01486 -5.42884,0.00427 -8.14385,-0.01291c-1.20565,0.0145 -1.20565,0.0145 -2.43567,0.0293c-3.56406,-0.04726 -5.64326,-0.23215 -8.55189,-2.37486c-2.03373,-2.9291 -2.00695,-4.65977 -1.49706,-8.15615c3.27187,-5.76472 7.97962,-5.1488 13.98804,-5.14526z"/>
 </g>
</svg>