<svg width="24" height="24" xmlns="http://www.w3.org/2000/svg" fill="none">
 <g>
  <title>Layer 1</title>
  <path fill-rule="evenodd" clip-rule="evenodd" d="m21.87262,7.68475c0.7454,0.56719 1.1822,1.44956 1.1822,2.38625l0,9.929c0,1.6569 -1.3431,3 -3,3l-16,0c-1.65685,0 -3,-1.3431 -3,-3l0,-9.929c0,-0.93669 0.43675,-1.81906 1.18224,-2.38625c2.18515,-1.66254 6.74911,-5.13326 8.01776,-6.08475c1.0667,-0.8 2.5333,-0.8 3.6,0c1.2686,0.95148 5.8326,4.42221 8.0178,6.08475zm-18.8178,2.48405l7.1411,5.6377c1.0899,0.8605 2.6279,0.8605 3.7178,0l7.1411,-5.6377l0,9.8312c0,0.5523 -0.4477,1 -1,1l-16,0c-0.55228,0 -1,-0.4477 -1,-1l0,-9.8312zm9.6,-6.9688l7.1792,5.38443l-7.1596,5.65227c-0.3633,0.2869 -0.8759,0.2869 -1.2392,0l-7.15963,-5.65227l7.17923,-5.38443c0.3556,-0.26667 0.8444,-0.26667 1.2,0z" fill="#0F0F0F" id="svg_1"/>
  <line fill="#0F0F0F" x1="2.02175" y1="8.41109" x2="21.65198" y2="9.22675" id="svg_4" stroke-linejoin="undefined" stroke-linecap="undefined"/>
  <path transform="rotate(180 12.1383 13.039)" stroke="null" fill="#0F0F0F" d="m4.01406,16.34162l8.12428,-6.60527l8.12428,6.60527l-16.24855,0l-0.00001,0z" id="svg_10"/>
 </g>

</svg>